<svg width="9" height="14" viewBox="0 0 9 14" fill="none" xmlns="http://www.w3.org/2000/svg">
<path d="M0.5 1.33337C0.5 1.06671 0.6 0.833374 0.8 0.633374C1 0.433374 1.23333 0.333374 1.5 0.333374L7.5 0.333374C7.75556 0.333374 7.98611 0.433374 8.19167 0.633374C8.39722 0.833374 8.5 1.06671 8.5 1.33337V12.6667C8.5 12.9334 8.39722 13.1667 8.19167 13.3667C7.98611 13.5667 7.75556 13.6667 7.5 13.6667H1.5C1.23333 13.6667 1 13.5667 0.8 13.3667C0.6 13.1667 0.5 12.9334 0.5 12.6667L0.5 1.33337ZM1.5 1.33337L1.5 12.6667H7.5V10.5H4.5V9.50004H7.5L7.5 7.50004H4.5V6.50004H7.5V4.50004H4.5V3.50004L7.5 3.50004V1.33337L1.5 1.33337ZM4.5 3.50004V4.50004V3.50004ZM4.5 6.50004V7.50004V6.50004ZM4.5 9.50004V10.5V9.50004Z" fill="#1D1D1D"/>
</svg>
